Coordinates
version=1
nRows=8
nColumns=40
inDegrees=yes

Units are S.I. units (second, meters, Newtons, ...)
Angles are in degrees.

endheader
time	pelvis_tilt	pelvis_list	pelvis_rotation	pelvis_tx	pelvis_ty	pelvis_tz	hip_flexion_r	hip_adduction_r	hip_rotation_r	knee_angle_r	knee_angle_r_beta	ankle_angle_r	subtalar_angle_r	mtp_angle_r	hip_flexion_l	hip_adduction_l	hip_rotation_l	knee_angle_l	knee_angle_l_beta	ankle_angle_l	subtalar_angle_l	mtp_angle_l	lumbar_extension	lumbar_bending	lumbar_rotation	arm_flex_r	arm_add_r	arm_rot_r	elbow_flex_r	pro_sup_r	wrist_flex_r	wrist_dev_r	arm_flex_l	arm_add_l	arm_rot_l	elbow_flex_l	pro_sup_l	wrist_flex_l	wrist_dev_l
     49.51250000	     -4.41639829	     -4.63086140	      6.63549546	      1.08262334	      0.92213548	      0.44963048	      1.12497142	     -0.96162848	    -15.74104889	     22.96193970	     22.96193970	     16.59054099	     -1.98429072	     -6.33107317	     26.33926907	     -6.33237843	     -2.24685726	     26.75017052	     26.75017052	      7.92760706	    -13.59999510	      5.02478430	     -8.30844044	      4.68665116	      2.76214045	     29.72573619	    -13.51496679	      9.84578959	     98.65671749	     44.65629526	      0.00000000	      0.00000000	      1.79349153	    -11.61485661	     -4.84682704	     33.77897798	     45.08589367	      0.00000000	      0.00000000
     49.52571429	     -4.39526946	     -4.60307937	      6.39120158	      1.08337555	      0.92311331	      0.44635616	      2.05844311	     -1.60970827	    -15.32987911	     25.44617568	     25.44617568	     15.80291375	     -2.85373665	     -7.34569902	     25.70284280	     -6.28043827	     -2.74327656	     26.57947189	     26.57947189	      8.33525779	    -13.28967881	      4.81032892	     -8.26421665	      4.64585539	      2.61131439	     29.50454372	    -13.46469127	      9.54845304	     98.14915662	     44.68503099	      0.00000000	      0.00000000	      2.10098351	    -11.50289294	     -4.52614548	     33.80426806	     45.05797241	      0.00000000	      0.00000000
     49.53892857	     -4.41483848	     -4.67032161	      6.17578516	      1.08399026	      0.92399089	      0.44331238	      3.06439916	     -2.02107022	    -14.55538479	     27.68949815	     27.68949815	     13.30251329	     -5.18594970	    -12.28116553	     25.11357061	     -6.35388969	     -3.29036038	     26.35475811	     26.35475811	      8.62782745	    -12.71001603	      4.25702010	     -8.12773865	      4.68656364	      2.47868831	     29.04601656	    -12.91594594	      8.32614948	     96.81999471	     44.78965208	      0.00000000	      0.00000000	      2.43963708	    -11.68872531	     -2.46065037	     33.75919794	     44.86858153	      0.00000000	      0.00000000
     49.55214286	     -4.34226864	     -4.61929027	      5.88559826	      1.08444780	      0.92489037	      0.44022858	      4.34067756	     -2.77187825	    -14.10367879	     30.81056397	     30.81056397	     12.33277074	     -5.96229587	    -12.93445861	     24.39504776	     -6.28266948	     -3.80555941	     26.13788207	     26.13788207	      9.02324132	    -12.43717908	      4.04689753	     -8.22019992	      4.64647669	      2.36505203	     28.62235893	    -13.06268007	      8.28068976	     96.43020984	     44.80429612	      0.00000000	      0.00000000	      2.81721481	    -11.60082093	     -2.28180913	     33.99694807	     44.86071156	      0.00000000	      0.00000000
     49.56535714	     -4.35850223	     -4.56996105	      5.58074366	      1.08462479	      0.92559378	      0.43736525	      5.90792527	     -3.48706057	    -13.47692560	     34.15412404	     34.15412404	     11.06555960	     -7.11330338	    -13.58161119	     23.79954423	     -6.23036864	     -4.37815588	     25.92728633	     25.92728633	      9.33735433	    -12.05186034	      3.79380573	     -8.22447726	      4.57581996	      2.23239144	     28.01117992	    -13.09080362	      8.04447530	     95.68591693	     44.83541630	      0.00000000	      0.00000000	      3.24857549	    -11.54180163	     -2.06277107	     34.27748150	     44.84868015	      0.00000000	      0.00000000
     49.57857143	     -4.36442252	     -4.65394173	      5.27036444	      1.08467669	      0.92617110	      0.43485041	      7.49597206	     -3.88441250	    -12.57237975	     37.27907261	     37.27907261	      8.74493058	     -9.35009596	    -16.10950282	     23.24469010	     -6.36524237	     -4.98811505	     25.74804303	     25.74804303	      9.56271874	    -11.53729843	      2.97963181	     -8.17264178	      4.62908242	      2.03202404	     27.34206939	    -12.48859740	      6.76301309	     93.88234711	     44.94790396	      0.00000000	      0.00000000	      3.48421978	    -11.86698985	     -0.21747885	     35.01831323	     44.71239174	      0.00000000	      0.00000000
     49.59178571	     -4.25921826	     -4.58162456	      4.94683548	      1.08455031	      0.92679076	      0.43229178	      9.14539834	     -4.56727064	    -11.92244139	     40.78523734	     40.78523734	      7.30297995	    -10.31050021	    -16.14112713	     22.57267241	     -6.28499552	     -5.45957395	     25.60699339	     25.60699339	      9.92311605	    -11.33248296	      2.78535869	     -8.37151370	      4.56662388	      1.90469356	     26.57033294	    -12.56107743	      6.70389622	     93.14213221	     44.97141372	      0.00000000	      0.00000000	      4.13016158	    -11.83494217	     -0.09496994	     35.36570818	     44.71634872	      0.00000000	      0.00000000
     49.60500000	     -4.27647949	     -4.60490686	      4.59131149	      1.08423182	      0.92715781	      0.43008279	     11.02960040	     -5.01336445	    -11.07909052	     44.25590067	     44.25590067	      5.74887359	    -11.57636243	    -15.72475756	     22.07622050	     -6.32771857	     -5.94925927	     25.48640187	     25.48640187	     10.27950770	    -11.06553305	      2.50318055	     -8.38012277	      4.54481392	      1.83643417	     25.61547583	    -12.57220541	      6.28487380	     91.79054686	     45.02558521	      0.00000000	      0.00000000	      4.75072196	    -11.84810262	      0.13713573	     35.80506805	     44.71160103	      0.00000000	      0.00000000
